<svg xmlns="http://www.w3.org/2000/svg" viewBox="0 0 32 32" width="32" height="32">
  <rect width="32" height="32" rx="6" fill="#000000"/>
  <path
    fill="#5eead4"
    d="M9 6 L11.5 12.5 C13 11.8 14.4 11.5 16 11.5 C17.6 11.5 19 11.8 20.5 12.5 L23 6
       L23.6 12.8 C25.2 14.6 26 16.8 26 19 C26 24.2 21.5 27.5 16 27.5
       C10.5 27.5 6 24.2 6 19 C6 16.8 6.8 14.6 8.4 12.8 Z"
  />
  <path fill="#000000" d="M12.2 18.4 a1.3 1.6 0 1 0 2.6 0 a1.3 1.6 0 1 0 -2.6 0 Z"/>
  <path fill="#000000" d="M17.2 18.4 a1.3 1.6 0 1 0 2.6 0 a1.3 1.6 0 1 0 -2.6 0 Z"/>
  <path fill="#000000" d="M15.1 21 L16.9 21 L16 22.1 Z"/>
</svg>
